<svg xmlns="http://www.w3.org/2000/svg" width="34.069" height="34.068" viewBox="0 0 34.069 34.068">
  <g id="retorno-de-la-inversion_1_" data-name="retorno-de-la-inversion (1)" transform="translate(-1 -1)">
    <path id="Trazado_1175632" data-name="Trazado 1175632" d="M30.747,31.714A2.193,2.193,0,0,0,30.2,27.4a1.1,1.1,0,1,1,1.1-1.1h1.1a2.2,2.2,0,0,0-1.648-2.12V23h-1.1v1.177a2.193,2.193,0,0,0,.549,4.318,1.1,1.1,0,1,1-1.1,1.1H28a2.2,2.2,0,0,0,1.648,2.12v1.177h1.1Z" transform="translate(-12.164 -9.911)"/>
    <path id="Trazado_1175633" data-name="Trazado 1175633" d="M26.143,19A7.152,7.152,0,0,0,19,26.143h1.1A6.052,6.052,0,0,1,26.143,20.1Z" transform="translate(-8.109 -8.109)"/>
    <path id="Trazado_1175634" data-name="Trazado 1175634" d="M38.044,32A6.052,6.052,0,0,1,32,38.044v1.1A7.152,7.152,0,0,0,39.143,32Z" transform="translate(-13.966 -13.966)"/>
    <path id="Trazado_1175635" data-name="Trazado 1175635" d="M17.852,8.164a14.231,14.231,0,0,0-4.571,3.183l.791.763a13.162,13.162,0,0,1,4.221-2.939Z" transform="translate(-5.533 -3.227)"/>
    <path id="Trazado_1175636" data-name="Trazado 1175636" d="M24.823,6.754c-.387.1-.771.207-1.144.333l.353,1.041c.343-.116.7-.219,1.054-.308Z" transform="translate(-10.217 -2.592)"/>
    <path id="Trazado_1175637" data-name="Trazado 1175637" d="M28.985,6.082c-.375.03-.76.076-1.143.137L28.016,7.3c.354-.057.709-.1,1.055-.126Z" transform="translate(-12.092 -2.289)"/>
    <path id="Trazado_1175638" data-name="Trazado 1175638" d="M18.034,2.1A15.831,15.831,0,0,1,29.3,6.766a.566.566,0,0,0,.777,0l1.143-1.143V9.792H27.054l1.083-1.083a.549.549,0,0,0,0-.777,14.193,14.193,0,0,0-10.1-4.184v1.1a13.093,13.093,0,0,1,8.929,3.482L25.339,9.953a.549.549,0,0,0,.388.938h6.044a.549.549,0,0,0,.549-.549V4.3a.549.549,0,0,0-.938-.388l-1.7,1.7A17.035,17.035,0,0,0,1,18.034H2.1A15.954,15.954,0,0,1,18.034,2.1Z"/>
    <path id="Trazado_1175639" data-name="Trazado 1175639" d="M46.611,49.418l-.791-.763A13.161,13.161,0,0,1,41.6,51.594l.44,1.007A14.237,14.237,0,0,0,46.611,49.418Z" transform="translate(-18.29 -21.469)"/>
    <path id="Trazado_1175640" data-name="Trazado 1175640" d="M38.024,56.119c.387-.1.771-.207,1.144-.333l-.353-1.041c-.343.116-.7.219-1.054.308Z" transform="translate(-16.561 -24.212)"/>
    <path id="Trazado_1175641" data-name="Trazado 1175641" d="M34.008,56.916c.375-.03.76-.076,1.143-.137l-.174-1.085c-.354.057-.709.1-1.055.126Z" transform="translate(-14.831 -24.64)"/>
    <path id="Trazado_1175642" data-name="Trazado 1175642" d="M36.222,32a15.935,15.935,0,0,1-27.2,11.268.566.566,0,0,0-.777,0L7.1,44.411V40.242h4.168l-1.083,1.083a.549.549,0,0,0,0,.777,14.193,14.193,0,0,0,10.1,4.184v-1.1a13.093,13.093,0,0,1-8.929-3.482l1.624-1.624a.549.549,0,0,0-.388-.938H6.549A.549.549,0,0,0,6,39.693v6.044a.549.549,0,0,0,.938.388l1.7-1.7A17.035,17.035,0,0,0,37.321,32Z" transform="translate(-2.253 -13.966)"/>
    <path id="Trazado_1175643" data-name="Trazado 1175643" d="M33.683,24.341a9.341,9.341,0,1,0-9.341,9.341A9.352,9.352,0,0,0,33.683,24.341Zm-9.341,8.242a8.242,8.242,0,1,1,8.242-8.242A8.252,8.252,0,0,1,24.341,32.584Z" transform="translate(-6.307 -6.307)"/>
  </g>
</svg>
