<svg xmlns="http://www.w3.org/2000/svg" xmlns:xlink="http://www.w3.org/1999/xlink" width="113" height="113" viewBox="0 0 113 113">
  <defs>
    <filter id="Trazado_982547" x="0" y="0" width="113" height="113" filterUnits="userSpaceOnUse">
      <feOffset dy="3" input="SourceAlpha"/>
      <feGaussianBlur stdDeviation="3" result="blur"/>
      <feFlood flood-opacity="0.161"/>
      <feComposite operator="in" in2="blur"/>
      <feComposite in="SourceGraphic"/>
    </filter>
  </defs>
  <g id="Grupo_1222424" data-name="Grupo 1222424" transform="translate(-1216 -919.033)">
    <g id="Grupo_1222244" data-name="Grupo 1222244" transform="translate(0.501 -8555.881)">
      <g id="Grupo_1214722" data-name="Grupo 1214722" transform="translate(1224.499 9480.914)">
        <g id="Grupo_1209935" data-name="Grupo 1209935">
          <g id="Grupo_1208705" data-name="Grupo 1208705">
            <g id="Grupo_1148633" data-name="Grupo 1148633">
              <g id="Grupo_1148525" data-name="Grupo 1148525">
                <g transform="matrix(1, 0, 0, 1, -9, -6)" filter="url(#Trazado_982547)">
                  <g id="Trazado_982547-2" data-name="Trazado 982547" transform="translate(9 6)" fill="#f9e3d4">
                    <path d="M 47.5 93.5 C 41.28937149047852 93.5 35.26533508300781 92.28397369384766 29.59518623352051 89.88570404052734 C 24.11771965026855 87.56893157958984 19.19813346862793 84.25196075439453 14.97309303283691 80.02691650390625 C 10.74804019927979 75.80186462402344 7.431066513061523 70.88229370117188 5.114293098449707 65.40481567382812 C 2.716026782989502 59.73468017578125 1.5 53.71062850952148 1.5 47.5 C 1.5 41.28937149047852 2.716026782989502 35.26533508300781 5.114293098449707 29.59518623352051 C 7.431066513061523 24.11771965026855 10.74804019927979 19.19813346862793 14.97309303283691 14.97309303283691 C 19.19813346862793 10.74804019927979 24.11771965026855 7.431066513061523 29.59518623352051 5.114293098449707 C 35.26533508300781 2.716026782989502 41.28937149047852 1.5 47.5 1.5 C 53.71062850952148 1.5 59.73468017578125 2.716026782989502 65.40481567382812 5.114293098449707 C 70.88229370117188 7.431066513061523 75.80186462402344 10.74804019927979 80.02691650390625 14.97309303283691 C 84.25196075439453 19.19813346862793 87.56893157958984 24.11771965026855 89.88570404052734 29.59518623352051 C 92.28397369384766 35.26533508300781 93.5 41.28937149047852 93.5 47.5 C 93.5 53.71062850952148 92.28397369384766 59.73468017578125 89.88570404052734 65.40481567382812 C 87.56893157958984 70.88229370117188 84.25196075439453 75.80186462402344 80.02691650390625 80.02691650390625 C 75.80186462402344 84.25196075439453 70.88229370117188 87.56893157958984 65.40481567382812 89.88570404052734 C 59.73468017578125 92.28397369384766 53.71062850952148 93.5 47.5 93.5 Z" stroke="none"/>
                    <path d="M 47.5 3 C 41.49121475219727 3 35.66376876831055 4.176155090332031 30.17950439453125 6.495796203613281 C 24.88084411621094 8.736953735351562 20.12152099609375 11.94598388671875 16.03375244140625 16.03375244140625 C 11.94598388671875 20.12152099609375 8.736953735351562 24.88084411621094 6.495796203613281 30.17950439453125 C 4.176155090332031 35.66376876831055 3 41.49121475219727 3 47.5 C 3 53.50878524780273 4.176155090332031 59.33623123168945 6.495796203613281 64.82049560546875 C 8.736953735351562 70.11915588378906 11.94598388671875 74.87847900390625 16.03375244140625 78.96624755859375 C 20.12152099609375 83.05401611328125 24.88084411621094 86.26304626464844 30.17950439453125 88.50419616699219 C 35.66376876831055 90.82384490966797 41.49121475219727 92 47.5 92 C 53.50878524780273 92 59.33623123168945 90.82384490966797 64.82049560546875 88.50419616699219 C 70.11915588378906 86.26304626464844 74.87847900390625 83.05401611328125 78.96624755859375 78.96624755859375 C 83.05401611328125 74.87847900390625 86.26304626464844 70.11915588378906 88.50419616699219 64.82049560546875 C 90.82384490966797 59.33623123168945 92 53.50878524780273 92 47.5 C 92 41.49121475219727 90.82384490966797 35.66376876831055 88.50419616699219 30.17950439453125 C 86.26304626464844 24.88084411621094 83.05401611328125 20.12152099609375 78.96624755859375 16.03375244140625 C 74.87847900390625 11.94598388671875 70.11915588378906 8.736953735351562 64.82049560546875 6.495796203613281 C 59.33623123168945 4.176155090332031 53.50878524780273 3 47.5 3 M 47.5 0 C 73.7335205078125 0 95 21.2664794921875 95 47.5 C 95 73.7335205078125 73.7335205078125 95 47.5 95 C 21.2664794921875 95 0 73.7335205078125 0 47.5 C 0 21.2664794921875 21.2664794921875 0 47.5 0 Z" stroke="none" fill="#eca675"/>
                  </g>
                </g>
              </g>
            </g>
          </g>
        </g>
      </g>
    </g>
    <g id="economia-global" transform="translate(1240.097 936.111)">
      <g id="Grupo_1222409" data-name="Grupo 1222409" transform="translate(2.004 3.024)">
        <g id="Grupo_1222398" data-name="Grupo 1222398" transform="translate(0.052 6.193)">
          <circle id="Elipse_14595" data-name="Elipse 14595" cx="27.869" cy="27.869" r="27.869" fill="#7cb5e8"/>
        </g>
        <g id="Grupo_1222399" data-name="Grupo 1222399" transform="translate(11.457 6.193)" opacity="0.3">
          <path id="Trazado_1175108" data-name="Trazado 1175108" d="M29.544,9a27.74,27.74,0,0,0-13.161,3.3A27.869,27.869,0,0,0,54.11,50.03,27.869,27.869,0,0,0,29.544,9Z" transform="translate(-13.08 -9)" fill="#fff"/>
        </g>
        <g id="Grupo_1222400" data-name="Grupo 1222400" transform="translate(39.275 37.159)">
          <circle id="Elipse_14596" data-name="Elipse 14596" cx="12.386" cy="12.386" r="12.386" fill="#ffab03"/>
        </g>
        <g id="Grupo_1222401" data-name="Grupo 1222401" transform="translate(45.128 37.159)" opacity="0.3">
          <path id="Trazado_1175109" data-name="Trazado 1175109" d="M52.234,39a12.22,12.22,0,0,0-5.316,1.218A12.254,12.254,0,0,0,45.7,45.534,12.383,12.383,0,0,0,58.086,57.92,12.22,12.22,0,0,0,63.4,56.7a12.254,12.254,0,0,0,1.218-5.316A12.39,12.39,0,0,0,52.234,39Z" transform="translate(-45.7 -39)" fill="#fff"/>
        </g>
        <g id="Grupo_1222402" data-name="Grupo 1222402">
          <path id="Trazado_1175110" data-name="Trazado 1175110" d="M11.321,3A9.339,9.339,0,0,0,1.98,12.341c0,5.161,9.341,17.5,9.341,17.5s9.341-12.335,9.341-17.5A9.339,9.339,0,0,0,11.321,3Zm0,14.327a4.986,4.986,0,1,1,4.986-4.986A4.982,4.982,0,0,1,11.321,17.327Z" transform="translate(-1.98 -3)" fill="#4e6575"/>
        </g>
        <g id="Grupo_1222403" data-name="Grupo 1222403" transform="translate(50.179 37.159)" opacity="0.3">
          <path id="Trazado_1175111" data-name="Trazado 1175111" d="M62.883,45.544a12.562,12.562,0,0,0-5.254-5.12A11.8,11.8,0,0,0,52.1,39c-1.961,0-2.023,3.066-.072,3.1h.052a9.3,9.3,0,0,1,9.29,9.29v.145a1.549,1.549,0,0,0,3.1.062A11.887,11.887,0,0,0,62.883,45.544Z" transform="translate(-50.593 -39)" fill="#fff"/>
        </g>
        <g id="Grupo_1222404" data-name="Grupo 1222404" transform="translate(26.26 6.193)" opacity="0.3">
          <path id="Trazado_1175112" data-name="Trazado 1175112" d="M29.082,9h-.134c-1.858.01-2.106,2.828-.268,3.066a2.643,2.643,0,0,0,.4.031A24.806,24.806,0,0,1,53.855,36.869a2.644,2.644,0,0,0,.031.4c.237,1.837,3.055,1.579,3.066-.268v-.134A27.872,27.872,0,0,0,29.082,9Z" transform="translate(-27.421 -9)" fill="#fff"/>
        </g>
        <g id="Grupo_1222405" data-name="Grupo 1222405" transform="translate(43.125 9.29)">
          <path id="Trazado_1175113" data-name="Trazado 1175113" d="M50.232,12a6.476,6.476,0,0,0-6.472,6.472c0,3.571,6.472,12.108,6.472,12.108S56.7,22.043,56.7,18.472A6.482,6.482,0,0,0,50.232,12Zm0,8.536A2.064,2.064,0,1,1,52.3,18.472,2.07,2.07,0,0,1,50.232,20.536Z" transform="translate(-43.76 -12)" fill="#ef4a51"/>
        </g>
        <g id="Grupo_1222406" data-name="Grupo 1222406" transform="translate(3.664 0)" opacity="0.3">
          <path id="Trazado_1175114" data-name="Trazado 1175114" d="M11.207,3A9.26,9.26,0,0,0,5.582,4.9a7.983,7.983,0,0,0-.052.867A10.594,10.594,0,0,0,6.6,10.411a4.986,4.986,0,0,1,9.579,1.941,4.931,4.931,0,0,1-1.91,3.891,10.6,10.6,0,0,0,1.91.175,10.465,10.465,0,0,0,3.52-.609,10.152,10.152,0,0,0,.836-3.468A9.324,9.324,0,0,0,11.207,3Z" transform="translate(-5.53 -3)" fill="#e2e2e2"/>
        </g>
        <g id="Grupo_1222407" data-name="Grupo 1222407" transform="translate(46.449 9.29)" opacity="0.3">
          <path id="Trazado_1175115" data-name="Trazado 1175115" d="M50.128,12A6.408,6.408,0,0,0,47,12.805c-.01.124-.021.248-.021.361a8.028,8.028,0,0,0,1.3,4.4,2.061,2.061,0,0,1,3.912.908,2.033,2.033,0,0,1-1.053,1.786,8,8,0,0,0,3.953,1.032,6.035,6.035,0,0,0,.754-.041,7.7,7.7,0,0,0,.743-2.787A6.465,6.465,0,0,0,50.128,12Z" transform="translate(-46.98 -12)" fill="#e2e2e2"/>
        </g>
        <g id="Grupo_1222408" data-name="Grupo 1222408" transform="translate(7.826)" opacity="0.3">
          <path id="Trazado_1175116" data-name="Trazado 1175116" d="M11.077,3h-.031a1.551,1.551,0,0,0-.041,3.1h.072a6.253,6.253,0,0,1,6.245,6.245v.072a1.552,1.552,0,0,0,3.1-.021v-.041A9.341,9.341,0,0,0,11.077,3Z" transform="translate(-9.562 -3)" fill="#e2e2e2"/>
        </g>
      </g>
      <g id="Grupo_1222423" data-name="Grupo 1222423" transform="translate(1.22 2.25)">
        <g id="Grupo_1222410" data-name="Grupo 1222410">
          <path id="Trazado_1175117" data-name="Trazado 1175117" d="M11.346,30.635a.777.777,0,0,1-.619-.31c-.392-.516-9.507-12.6-9.507-17.96a10.116,10.116,0,1,1,20.231,0c0,5.357-9.114,17.444-9.507,17.96A.725.725,0,0,1,11.346,30.635Zm0-26.837a8.573,8.573,0,0,0-8.567,8.567c0,3.726,5.708,12.283,8.567,16.2,2.87-3.912,8.567-12.469,8.567-16.2A8.573,8.573,0,0,0,11.346,3.8Zm0,14.327a5.76,5.76,0,1,1,5.76-5.76,5.762,5.762,0,0,1-5.76,5.76Zm0-9.971a4.211,4.211,0,1,0,4.211,4.211A4.216,4.216,0,0,0,11.346,8.154Z" transform="translate(-1.22 -2.25)"/>
        </g>
        <g id="Grupo_1222411" data-name="Grupo 1222411" transform="translate(18.92 6.193)">
          <path id="Trazado_1175118" data-name="Trazado 1175118" d="M29.335,65.537c-6.121,0-9.785-14.564-9.785-28.644S23.2,8.25,29.335,8.25,39.11,22.814,39.11,36.894,35.456,65.537,29.335,65.537Zm0-55.739c-3.974,0-8.237,10.89-8.237,27.1s4.263,27.1,8.237,27.1,8.227-10.89,8.227-27.1S33.309,9.8,29.335,9.8Z" transform="translate(-19.55 -8.25)"/>
        </g>
        <g id="Grupo_1222412" data-name="Grupo 1222412" transform="translate(39.286 37.159)">
          <path id="Trazado_1175119" data-name="Trazado 1175119" d="M52.441,64.571A13.161,13.161,0,1,1,65.6,51.411,13.176,13.176,0,0,1,52.441,64.571Zm0-24.773A11.612,11.612,0,1,0,64.053,51.411,11.63,11.63,0,0,0,52.441,39.8Z" transform="translate(-39.28 -38.25)"/>
        </g>
        <g id="Grupo_1222413" data-name="Grupo 1222413" transform="translate(43.414 41.288)">
          <path id="Trazado_1175120" data-name="Trazado 1175120" d="M52.312,60.313a9.026,9.026,0,1,1,3.52-.712.773.773,0,0,1-.6-1.424,7.494,7.494,0,1,0-2.921.588.774.774,0,1,1,0,1.548Z" transform="translate(-43.28 -42.25)"/>
        </g>
        <g id="Grupo_1222417" data-name="Grupo 1222417" transform="translate(49.917 44.828)">
          <g id="Grupo_1222414" data-name="Grupo 1222414" transform="translate(0 1.208)">
            <path id="Trazado_1175121" data-name="Trazado 1175121" d="M52.109,55.417a2.533,2.533,0,0,1-2.529-2.529.774.774,0,1,1,1.548,0,.981.981,0,1,0,.981-.981,2.529,2.529,0,1,1,2.529-2.529.774.774,0,0,1-1.548,0,.981.981,0,1,0-.981.981,2.529,2.529,0,0,1,0,5.058Z" transform="translate(-49.58 -46.85)"/>
          </g>
          <g id="Grupo_1222415" data-name="Grupo 1222415" transform="translate(1.755)">
            <path id="Trazado_1175122" data-name="Trazado 1175122" d="M52.054,48.436a.78.78,0,0,1-.774-.774V46.454a.774.774,0,1,1,1.548,0v1.208A.773.773,0,0,1,52.054,48.436Z" transform="translate(-51.28 -45.68)"/>
          </g>
          <g id="Grupo_1222416" data-name="Grupo 1222416" transform="translate(1.755 8.227)">
            <path id="Trazado_1175123" data-name="Trazado 1175123" d="M52.054,56.406a.78.78,0,0,1-.774-.774V54.424a.774.774,0,0,1,1.548,0v1.208A.773.773,0,0,1,52.054,56.406Z" transform="translate(-51.28 -53.65)"/>
          </g>
        </g>
        <g id="Grupo_1222418" data-name="Grupo 1222418" transform="translate(43.136 9.279)">
          <path id="Trazado_1175124" data-name="Trazado 1175124" d="M50.256,31.378a.777.777,0,0,1-.619-.31c-.681-.9-6.627-8.856-6.627-12.583a7.246,7.246,0,0,1,14.492,0c0,3.726-5.945,11.684-6.627,12.583a.792.792,0,0,1-.619.31Zm0-18.58a5.709,5.709,0,0,0-5.7,5.7c0,2.436,3.675,8.02,5.7,10.807,2.023-2.787,5.7-8.371,5.7-10.807A5.716,5.716,0,0,0,50.256,12.8Zm0,8.536A2.839,2.839,0,1,1,53.095,18.5,2.837,2.837,0,0,1,50.256,21.335Zm0-4.129a1.29,1.29,0,1,0,1.29,1.29A1.291,1.291,0,0,0,50.256,17.206Z" transform="translate(-43.01 -11.24)"/>
        </g>
        <g id="Grupo_1222419" data-name="Grupo 1222419" transform="translate(0.062 25.051)">
          <path id="Trazado_1175125" data-name="Trazado 1175125" d="M29.924,46.091c-14.079,0-28.644-3.654-28.644-9.785S15.844,26.52,29.924,26.52s28.644,3.664,28.644,9.785a.774.774,0,0,1-1.548,0c0-3.974-10.89-8.237-27.1-8.237s-27.1,4.263-27.1,8.237,10.89,8.237,27.1,8.237a80.815,80.815,0,0,0,9.888-.588.775.775,0,1,1,.2,1.538,84.181,84.181,0,0,1-10.085.6Z" transform="translate(-1.28 -26.52)"/>
        </g>
        <g id="Grupo_1222420" data-name="Grupo 1222420" transform="translate(0.062 19.433)">
          <path id="Trazado_1175126" data-name="Trazado 1175126" d="M29.924,65.124A28.647,28.647,0,0,1,5.543,21.441a.772.772,0,1,1,1.311.815,27.1,27.1,0,0,0,34.5,38.79.777.777,0,0,1,1.032.372.786.786,0,0,1-.372,1.032A28.435,28.435,0,0,1,29.924,65.124Z" transform="translate(-1.28 -21.076)"/>
        </g>
        <g id="Grupo_1222421" data-name="Grupo 1222421" transform="translate(18.564 6.193)">
          <path id="Trazado_1175127" data-name="Trazado 1175127" d="M45.985,15.31a.784.784,0,0,1-.464-.155,27.131,27.131,0,0,0-25.279-3.788.774.774,0,1,1-.526-1.455,28.676,28.676,0,0,1,26.734,4A.774.774,0,0,1,46.6,15a.808.808,0,0,1-.619.31Z" transform="translate(-19.205 -8.25)"/>
        </g>
        <g id="Grupo_1222422" data-name="Grupo 1222422" transform="translate(53.274 22.463)">
          <path id="Trazado_1175128" data-name="Trazado 1175128" d="M56.133,37.16a.78.78,0,0,1-.774-.774A26.814,26.814,0,0,0,52.9,25.1a.771.771,0,1,1,1.4-.64,28.42,28.42,0,0,1,2.6,11.932.778.778,0,0,1-.774.764Z" transform="translate(-52.832 -24.012)"/>
        </g>
      </g>
    </g>
  </g>
</svg>
